# xmcd
#
# Track frame offsets: 
#        150
#        15435
#        37784
#        50174
#        68876
#        86565
#        100869
#        132077
#        158196
#        176237
#        189008
#        204896
#        220693
#        244963
#        259047
#
# Disc length: 3651 seconds
#
# Revision: 5
# Processed by: cddbd v1.5.2PL0 Copyright (c) Steve Scherf et al.
# Submitted via: ExactAudioCopy v1.3
#
DISCID=c20e410f
DTITLE=???? - ????????
DYEAR=2007
DGENRE=J-Pop
TTITLE0=????
TTITLE1=?????
TTITLE2=?????
TTITLE3=???
TTITLE4=?????
TTITLE5=?????
TTITLE6=??
TTITLE7=??????
TTITLE8=????
TTITLE9=???
TTITLE10=????
TTITLE11=??????
TTITLE12=??
TTITLE13=?????
TTITLE14=??????
EXTD=
EXTT0=
EXTT1=
EXTT2=
EXTT3=
EXTT4=
EXTT5=
EXTT6=
EXTT7=
EXTT8=
EXTT9=
EXTT10=
EXTT11=
EXTT12=
EXTT13=
EXTT14=
PLAYORDER=
